<?xml version="1.0" encoding="UTF-8" standalone="no"?>
<!-- Created with Inkscape (http://www.inkscape.org/) -->

<svg
   width="34.912525mm"
   height="29.529573mm"
   viewBox="0 0 34.912525 29.529573"
   version="1.1"
   id="svg1"
   inkscape:export-filename="folder.svg"
   inkscape:export-xdpi="96"
   inkscape:export-ydpi="96"
   inkscape:version="1.4 (e7c3feb100, 2024-10-09)"
   sodipodi:docname="folder.svg"
   xmlns:inkscape="http://www.inkscape.org/namespaces/inkscape"
   xmlns:sodipodi="http://sodipodi.sourceforge.net/DTD/sodipodi-0.dtd"
   xmlns="http://www.w3.org/2000/svg"
   xmlns:svg="http://www.w3.org/2000/svg">
  <sodipodi:namedview
     id="namedview1"
     pagecolor="#ffffff"
     bordercolor="#000000"
     borderopacity="0.25"
     inkscape:showpageshadow="2"
     inkscape:pageopacity="0.0"
     inkscape:pagecheckerboard="0"
     inkscape:deskcolor="#d1d1d1"
     inkscape:document-units="mm"
     inkscape:zoom="4.4044578"
     inkscape:cx="88.546653"
     inkscape:cy="59.031102"
     inkscape:window-width="946"
     inkscape:window-height="1041"
     inkscape:window-x="0"
     inkscape:window-y="0"
     inkscape:window-maximized="1"
     inkscape:current-layer="layer1" />
  <defs
     id="defs1" />
  <g
     inkscape:label="Layer 1"
     inkscape:groupmode="layer"
     id="layer1"
     transform="translate(-20.4962,-14.189498)">
    <path
       id="path8"
       style="fill:#9f9f9f;fill-opacity:1;stroke:#000000;stroke-width:0.565155;stroke-dasharray:none;stroke-opacity:1"
       inkscape:transform-center-x="0.29462999"
       inkscape:transform-center-y="-0.34691156"
       d="m 38.626241,14.626155 c -4.587219,0.01875 -16.114615,0.406759 -16.562296,0.554488 -0.550993,0.181821 -0.09662,7.389906 0.376203,7.615556 0.296313,0.141412 6.715299,0.243872 11.594125,0.248047 0.08415,1.339741 0.231647,2.443487 0.409278,2.534212 0.466575,0.238305 16.527526,0.798102 17.041853,0.59738 0.514327,-0.200722 1.717504,-7.984782 1.201477,-8.225338 -0.317183,-0.147861 -6.982156,-0.174549 -12.20804,-0.134875 0.163571,-1.628563 0.210737,-3.0414 -0.0067,-3.135726 -0.09794,-0.04248 -0.787293,-0.05807 -1.845882,-0.05374 z" />
    <path
       sodipodi:type="star"
       style="fill:#d9d9d9;fill-opacity:1;stroke:#000000;stroke-width:0.665;stroke-dasharray:none;stroke-opacity:1"
       id="path7"
       inkscape:flatsided="true"
       sodipodi:sides="4"
       sodipodi:cx="42.137299"
       sodipodi:cy="43.15675"
       sodipodi:r1="33.888115"
       sodipodi:r2="23.962517"
       sodipodi:arg1="0.80667155"
       sodipodi:arg2="1.5920697"
       inkscape:rounded="0.04"
       inkscape:randomized="0.1"
       d="m 66.503414,65.689573 c -1.384918,1.207491 -49.588064,0.2166 -50.882767,-1.197561 -1.294703,-1.414161 0.767899,-44.113912 2.276414,-45.272645 1.508516,-1.158733 45.285096,0.445028 46.791022,1.729441 1.505925,1.284413 3.200249,43.533275 1.815331,44.740765 z"
       transform="matrix(0.66487894,-0.01934185,0.0112752,0.52453747,9.9620405,9.6417592)" />
  </g>
</svg>
