<?xml version="1.0" encoding="UTF-8" standalone="no"?>
<!-- Created with Inkscape (http://www.inkscape.org/) -->

<svg
   width="199.85063mm"
   height="215.83746mm"
   viewBox="0 0 199.85063 215.83746"
   version="1.1"
   id="svg1"
   xmlns="http://www.w3.org/2000/svg"
   xmlns:svg="http://www.w3.org/2000/svg">
  <defs
     id="defs1" />
  <g
     id="layer1"
     transform="translate(-5.0746879,-45.250759)">
    <circle
       style="fill:#102d4b;fill-opacity:1;stroke:#000000;stroke-width:0.665001"
       id="path9"
       cx="105"
       cy="148.5"
       r="99.592812" />
    <path
       id="path8"
       style="fill:#3ce2d5;fill-opacity:1;stroke:#000000;stroke-width:1.10689"
       d="m 132.16366,45.936807 c -1.40971,-0.211002 -2.46734,-0.157487 -3.08571,0.209167 -4.64085,2.751596 -24.2269,74.443276 -27.69537,77.971426 -4.05908,-2.44854 -18.960077,-7.83418 -29.367967,-7.26305 -4.759349,3.49947 -29.578161,136.30395 -24.260024,143.06619 6.82818,8.68234 37.588618,-75.92808 52.123889,-96.62945 6.014532,-0.97847 29.210902,14.23995 32.014422,13.32092 0.71429,-0.14922 1.02463,-0.0316 1.54273,-0.30385 6.39141,-3.36071 59.96232,-85.06615 59.39112,-93.719334 -0.51761,-7.841958 -47.03589,-34.612416 -60.66309,-36.652019 z" />
    <path
       id="rect3-9-5"
       style="fill:#9b9b9b;fill-opacity:1;stroke:#000000;stroke-width:1.853;stroke-linecap:butt;stroke-linejoin:round;stroke-dasharray:none;paint-order:normal"
       d="m 43.89806,34.673257 v 5.907356 A 38.360801,38.360801 0 0 0 29.535612,46.556665 L 25.522019,42.542809 15.394713,52.670116 19.4083,56.683976 A 38.360801,38.360801 0 0 0 13.432516,71.046424 H 7.5248985 v 14.32223 h 5.9076175 a 38.360801,38.360801 0 0 0 6.01493,14.42343 l -4.098799,4.098786 10.027456,10.0272 4.098531,-4.09881 a 38.360801,38.360801 0 0 0 14.423426,6.0152 v 5.90736 h 14.322235 v -5.90736 a 38.360801,38.360801 0 0 0 14.362711,-5.97605 l 4.378388,4.37866 10.127311,-10.12732 -4.322207,-4.322466 a 38.360801,38.360801 0 0 0 5.972326,-14.41863 h 5.854633 V 71.046424 H 88.738824 A 38.360801,38.360801 0 0 0 82.725229,56.568946 L 86.929737,52.364165 76.902549,42.336977 72.643983,46.59581 A 38.360801,38.360801 0 0 0 58.220295,40.580613 v -5.907356 z m 7.161252,21.525565 A 22.008704,22.008704 0 0 1 73.067897,78.207404 22.008704,22.008704 0 0 1 51.059312,100.21625 22.008704,22.008704 0 0 1 29.050458,78.207404 22.008704,22.008704 0 0 1 51.059312,56.198822 Z" />
  </g>
</svg>
