<?xml version="1.0" encoding="UTF-8" standalone="no"?>
<!-- Created with Inkscape (http://www.inkscape.org/) -->

<svg
   width="199.85063mm"
   height="215.83746mm"
   viewBox="0 0 199.85063 215.83746"
   version="1.1"
   id="svg1"
   xmlns="http://www.w3.org/2000/svg"
   xmlns:svg="http://www.w3.org/2000/svg">
  <defs
     id="defs1" />
  <g
     id="layer1"
     transform="translate(-5.0746879,-45.250759)">
    <circle
       style="fill:#102d4b;fill-opacity:1;stroke:#000000;stroke-width:0.665001"
       id="path9"
       cx="105"
       cy="148.5"
       r="99.592812" />
    <path
       id="path8"
       style="fill:#3ce2d5;fill-opacity:1;stroke:#000000;stroke-width:1.10689"
       d="m 132.16366,45.936807 c -1.40971,-0.211002 -2.46734,-0.157487 -3.08571,0.209167 -4.64085,2.751596 -24.2269,74.443276 -27.69537,77.971426 -4.05908,-2.44854 -18.960077,-7.83418 -29.367967,-7.26305 -4.759349,3.49947 -29.578161,136.30395 -24.260024,143.06619 6.82818,8.68234 37.588618,-75.92808 52.123889,-96.62945 6.014532,-0.97847 29.210902,14.23995 32.014422,13.32092 0.71429,-0.14922 1.02463,-0.0316 1.54273,-0.30385 6.39141,-3.36071 59.96232,-85.06615 59.39112,-93.719334 -0.51761,-7.841958 -47.03589,-34.612416 -60.66309,-36.652019 z" />
    <circle
       style="fill:#0ce334;fill-opacity:1;stroke:#000000;stroke-width:1.624;stroke-dasharray:none"
       id="path1"
       cx="50.346451"
       cy="69.898727"
       r="35.684654" />
    <path
       id="path2-5"
       style="fill:#ffffff;fill-opacity:1;stroke:#000000;stroke-width:0.960094"
       d="m 50.346755,41.645172 c -4.516566,0 -8.178107,3.661231 -8.178107,8.177802 V 61.720623 H 30.271007 c -4.516584,0 -8.178113,3.66123 -8.178113,8.177801 0,4.516571 3.661529,8.178107 8.178113,8.178106 h 11.897641 v 11.897653 c 0,4.516571 3.661541,8.1781 8.178107,8.1781 4.516571,0 8.177802,-3.661529 8.177802,-8.1781 V 78.07653 h 11.897649 c 4.516566,10e-7 8.177801,-3.661534 8.177801,-8.178106 0,-4.516571 -3.661235,-8.177802 -8.177801,-8.177801 H 58.524557 V 49.822974 c 0,-4.516571 -3.661231,-8.177802 -8.177802,-8.177802 z" />
  </g>
</svg>
