<?xml version="1.0" encoding="UTF-8" standalone="no"?>
<!-- Created with Inkscape (http://www.inkscape.org/) -->

<svg
   width="199.85063mm"
   height="227.68616mm"
   viewBox="0 0 199.85063 227.68615"
   version="1.1"
   id="svg1"
   sodipodi:docname="storm_rss_simple_remove.svg"
   inkscape:version="1.4 (e7c3feb100, 2024-10-09)"
   xmlns:inkscape="http://www.inkscape.org/namespaces/inkscape"
   xmlns:sodipodi="http://sodipodi.sourceforge.net/DTD/sodipodi-0.dtd"
   xmlns="http://www.w3.org/2000/svg"
   xmlns:svg="http://www.w3.org/2000/svg">
  <sodipodi:namedview
     id="namedview1"
     pagecolor="#ffffff"
     bordercolor="#000000"
     borderopacity="0.25"
     inkscape:showpageshadow="2"
     inkscape:pageopacity="0.0"
     inkscape:pagecheckerboard="0"
     inkscape:deskcolor="#d1d1d1"
     inkscape:document-units="mm"
     inkscape:zoom="1.0713888"
     inkscape:cx="378.01404"
     inkscape:cy="340.21264"
     inkscape:window-width="1906"
     inkscape:window-height="1041"
     inkscape:window-x="0"
     inkscape:window-y="0"
     inkscape:window-maximized="1"
     inkscape:current-layer="svg1" />
  <defs
     id="defs1" />
  <g
     id="layer1"
     transform="translate(-5.0746879,-33.402073)">
    <circle
       style="fill:#102d4b;fill-opacity:1;stroke:#000000;stroke-width:0.665001"
       id="path9"
       cx="105"
       cy="148.5"
       r="99.592812" />
    <path
       id="path8"
       style="fill:#3ce2d5;fill-opacity:1;stroke:#000000;stroke-width:1.10689"
       d="m 132.16366,45.936807 c -1.40971,-0.211002 -2.46734,-0.157487 -3.08571,0.209167 -4.64085,2.751596 -24.2269,74.443276 -27.69537,77.971426 -4.05908,-2.44854 -18.960077,-7.83418 -29.367967,-7.26305 -4.759349,3.49947 -29.578161,136.30395 -24.260024,143.06619 6.82818,8.68234 37.588618,-75.92808 52.123889,-96.62945 6.014532,-0.97847 29.210902,14.23995 32.014422,13.32092 0.71429,-0.14922 1.02463,-0.0316 1.54273,-0.30385 6.39141,-3.36071 59.96232,-85.06615 59.39112,-93.719334 -0.51761,-7.841958 -47.03589,-34.612416 -60.66309,-36.652019 z" />
    <circle
       style="fill:#e30c0c;fill-opacity:1;stroke:#000000;stroke-width:1.624;stroke-dasharray:none"
       id="path1"
       cx="50.346451"
       cy="69.898727"
       r="35.684654" />
    <path
       id="path2-5-6"
       style="fill:#f7fef8;fill-opacity:1;stroke:#000000;stroke-width:0.85702"
       d="m 25.126172,69.898591 c 0,4.031676 3.26816,7.300113 7.29984,7.300112 h 35.840609 c 4.031671,1e-6 7.300109,-3.268435 7.300109,-7.300112 0,-4.031676 -3.268438,-7.29984 -7.300109,-7.299839 H 32.426012 c -4.03168,-10e-7 -7.29984,3.268164 -7.29984,7.299839 z" />
  </g>
</svg>
